<svg id="Layer_1" data-name="Layer 1" xmlns="http://www.w3.org/2000/svg" viewBox="0 0 1000 511.5"><defs><style>.cls-1{font-size:166px;font-family:Times Eighteen LT;}</style></defs><title>ART-SCHOOL-1</title><path d="M305.4,113.8L268.9,221.4H267l-28.6-80.8-27.4,80.8h-2L171.4,111.7c-3.2-9.3-5.6-12.1-10.3-12.1h-2.5V97h41.5v2.5h-2.3c-6.5,0-10.8,2.7-7.3,13.1l25.4,75,19.3-56.9-8-22.2c-2.2-6.1-5.3-9-10.3-9h-2.2V97h43.3v2.5h-2.5c-6.8,0-12.1,3.8-7.5,16.9l25.1,71.4L298.4,113c3.3-9.6-1.2-13.4-8.3-13.4h-3.5V97h32.5v2.3C312.5,99.7,309,103.4,305.4,113.8Z"/><path d="M363.5,218.7v-2c8.8-.2,11.5-2.7,11.5-10.3V158.1c0-9-4.8-14.3-12.9-14.3-6.5,0-12.5,3.3-20.4,11.6v49.8c0,10.8,3.2,11.5,10.8,11.5v2H315.8v-2h2.3c6.3,0,9.6-3.7,9.6-11.3v-90c0-5-2.7-8.1-6.6-8.1a18.4,18.4,0,0,0-5,.8v-1.8c11.5-5,22.7-11.6,24.1-11.6s1.3,1,1.3,4v52c7.8-7.3,14.9-16.6,27.2-16.6s20.1,7.1,20.1,24.1v47.5c0,10.3,4.8,11.1,11.1,11.1v2H363.5Z"/><path d="M459.1,219.9c-6.5,0-10-4-11.3-12.5,0,0-13.4,12.5-26.9,12.5S401,212.3,401,200.8s9.3-21.1,36.7-31.4l9.8-3.7V152.5c0-9-6.3-14.3-16.6-14.3s-13.8,4.5-13.8,12.5a42.8,42.8,0,0,0,.5,4.8c0.2,4.1-2,6.3-6.3,6.3s-7-3-7-7.3c0-12,12.3-20.7,29.2-20.7s27.6,9,27.6,23.6v47.1q0,6.5,5,6.5c3.2,0,7.6-4.6,7.6-4.6l1.7,1.5C469.1,216.6,464.6,219.9,459.1,219.9Zm-11.6-49.6c-22.1,7.3-33.4,12.8-33.4,26.4,0,8.3,5.8,14.3,14.6,14.3,6.5,0,13.6-3.8,18.8-10V170.3Z"/><path d="M496.6,219.7c-9.3,0-15.6-7-15.6-17.6V139.9H468.9v-2.5c13.1-5.1,17.9-12.4,24.2-26.2h1.7v24.1h16.8v4.6H494.8v61.6c0,6,2.7,9.6,8.5,9.6s12.6-6.8,12.6-6.8l1.5,1.8C512.1,214.6,504.3,219.7,496.6,219.7Z"/><path d="M546.9,218.7v-2c9.3,0,12.6-4,12.6-11.6V152c0-5.1-2-6.6-5.8-6.6a14.4,14.4,0,0,0-5.5,1.2l-0.7-2.2c8.5-3,23.1-10.8,24.4-10.8s1.5,0.8,1.5,2.5v70.4c0,8.1,3.8,10.3,12.3,10.3v2H546.9Zm19.4-104.9a7.9,7.9,0,1,1,0-15.8A7.9,7.9,0,0,1,566.3,113.8Z"/><path d="M611.5,219.9c-9.5,0-17.1-4.1-18.8-4.1s-3.3,3-3.3,3h-2V192h2c2.2,15.4,10.5,23.9,22.9,23.9,9,0,14.9-5.3,14.9-13.1,0-5.3-2.5-9-8.5-13.1l-17.9-12.1c-9.3-6.1-13.6-12.8-13.6-21.2,0-12.9,10.1-22.2,24.2-22.2,8.8,0,15.6,4.1,18.1,4.1s2.2-2.3,2.2-2.3h1.8v23.9h-2c-1.8-14.1-8.8-21.4-20.4-21.4-9,0-15.1,5.3-15.1,13.1,0,5,3.2,9.3,10,13.4l20.1,12.6c8,5,11.8,11.5,11.8,19.9C637.9,210.9,627.1,219.9,611.5,219.9Z"/><path d="M730.5,219.9c-6.5,0-10-4-11.3-12.5,0,0-13.4,12.5-26.9,12.5s-19.9-7.6-19.9-19.1,9.3-21.1,36.7-31.4l9.8-3.7V152.5c0-9-6.3-14.3-16.6-14.3s-13.8,4.5-13.8,12.5a42.8,42.8,0,0,0,.5,4.8c0.2,4.1-2,6.3-6.3,6.3s-7-3-7-7.3c0-12,12.3-20.7,29.2-20.7s27.6,9,27.6,23.6v47.1q0,6.5,5,6.5c3.2,0,7.6-4.6,7.6-4.6l1.7,1.5C740.5,216.6,736,219.9,730.5,219.9Zm-11.6-49.6c-22.1,7.3-33.4,12.8-33.4,26.4,0,8.3,5.8,14.3,14.6,14.3,6.5,0,13.6-3.8,18.8-10V170.3Z"/><path d="M790.6,218.7v-2h1.5c7.1,0,10.5-3.5,10.5-11v-49c0-8.6-4.5-13.3-12.8-13.3S776.2,148.8,769,155v52.6c0,6.1,3.3,9.1,9.8,9.1h1.3v2H743.3v-2h1.3c7.1,0,10.6-3,10.6-9.1V153.3c0-5.3-2.3-8.1-6.8-8.1a34.3,34.3,0,0,0-4.8,1.2l-0.3-2c6.1-2.5,24.4-10.6,24.9-10.6s1.3,1,1.3,2.3L769,150.2c8.1-7.1,17.1-16.4,28.4-16.4s18.9,8.1,18.9,24.4v49.3c0,6.3,3.2,9.3,10,9.3h0.8v2H790.6Z"/><text class="cls-1" transform="translate(852.2 218.7)"> </text><path d="M195.7,363.3v-2.5c10.6,0,14.9-2.8,9.8-17.1-2.3-6.6-8.3-22.1-8.3-22.1h-43l-9.8,23.2c-5,12-3.8,16.1,9.8,15.9v2.5H120.8L121,361c6.1-1,10.1-3.5,16.3-17.8,5-11.6,31-71.4,43-102.8a1.5,1.5,0,0,1,1.3-1.3,1.9,1.9,0,0,1,1.5,1.3c6.1,13.3,40.7,102.4,43.5,109.1,3.7,8.5,5.6,11.1,14.8,11.3v2.5H195.7Zm-17.9-92a1.9,1.9,0,0,0-1.2-1.3,2.4,2.4,0,0,0-1.2,1.3c-7.5,17.6-19.1,44.3-19.1,44.3h38.5S184.9,289.6,177.7,271.3Z"/><path d="M294.1,295.7c-5.3,0-6.6-6-11.8-6s-12.8,9-12.8,11v49.5c0,7.6,3.8,11.1,12.3,11.1h3v2H242.1v-2h2.3c7.3,0,11.1-3.2,11.1-9.3V298.7c0-5.8-2.8-9.1-7.5-9.1a14.6,14.6,0,0,0-5.5,1.3l-0.5-2s22.9-9,24.4-9,1.3,0.5,1.3,1.8v13.3c10.1-11,14.8-16.8,22.7-16.8,6.1,0,10.8,4.3,10.8,10.1A7,7,0,0,1,294.1,295.7Z"/><path d="M331.3,364.3c-9.3,0-15.6-7-15.6-17.6V284.5H303.6V282c13.1-5.1,17.9-12.5,24.2-26.2h1.7v24.1h16.8v4.6H329.5V346c0,6,2.7,9.6,8.5,9.6s12.6-6.8,12.6-6.8l1.5,1.8C346.7,359.2,338.9,364.3,331.3,364.3Z"/><path d="M426.6,366c-15.6,0-22.9-6.5-29.4-6.5-3.7,0-5.6,1.7-7.1,6.5h-2.3V325H390c3.5,20.4,17.3,34.7,33.7,34.7,13.8,0,23.4-9,23.4-21.7s-8.5-17.6-18.1-23.6c-12.8-8-27.1-17.6-31.9-22.2a31.6,31.6,0,0,1-9.3-21.6c0-17.8,14.8-31,34.2-31,12,0,21.6,5.6,25.7,5.6,2.5,0,4.8-5.8,4.8-5.8h2.3v40.2h-2.3c-2.2-21.7-13.1-34-30.4-34-12.3,0-20.3,7.5-20.3,18.8s7,16.8,23.1,26.2c0,0,19.3,10.8,26.9,17.4s10.6,13.6,10.8,25.2C463.1,353.2,448.3,366,426.6,366Z"/><path d="M502.3,364.5c-18.9,0-33.9-19.3-33.9-43.7s15.1-42.5,37-42.5c14.3,0,25.1,7.5,25.1,17.3,0,4.5-2.7,7.1-7,7.1s-7-2.5-7.8-6.6c-2.2-10.6-5.3-13.4-12.8-13.4-13.4,0-21.7,12.8-21.7,33.9s10.8,35,26.4,35S528,339.2,532,331.8l1.8,0.7C526.7,354,516.5,364.5,502.3,364.5Z"/><path d="M575.6,363.3v-2c8.8-.2,11.5-2.7,11.5-10.3V302.7c0-9-4.8-14.3-12.9-14.3-6.5,0-12.5,3.3-20.4,11.6v49.8c0,10.8,3.2,11.5,10.8,11.5v2H528v-2h2.3c6.3,0,9.6-3.7,9.6-11.3v-90c0-5-2.7-8.1-6.6-8.1a18.4,18.4,0,0,0-5,.8v-1.8c11.5-5,22.7-11.6,24.1-11.6s1.3,1,1.3,4v52c7.8-7.3,14.9-16.6,27.2-16.6s20.1,7.1,20.1,24.1v47.5c0,10.3,4.8,11.1,11.1,11.1v2H575.6Z"/><path d="M648.2,364.3c-24.4,0-39.8-17.4-39.8-43s15.4-43,39.8-43,39.8,17.4,39.8,43S672.6,364.3,648.2,364.3Zm-1-80.3c-14.9,0-23.6,12.6-23.6,34,0,25.1,9.5,40.8,25.6,40.8s23.6-12.6,23.6-34C672.7,299.7,664.3,284,647.2,284Z"/><path d="M733.8,364.3c-24.4,0-39.8-17.4-39.8-43s15.4-43,39.8-43,39.8,17.4,39.8,43S758.2,364.3,733.8,364.3Zm-1-80.3c-14.9,0-23.6,12.6-23.6,34,0,25.1,9.5,40.8,25.6,40.8s23.6-12.6,23.6-34C758.4,299.7,749.9,284,732.8,284Z"/><path d="M772,363.3v-2h1.2c7.5,0,11.1-4.6,11.1-12.6V258.6c0-4.8-2-7.3-5.6-7.3a24.5,24.5,0,0,0-6.3,1.5v-1.8c12.4-5.1,23.9-11.6,24.9-11.6s0.8,1.8.8,3.3V351.4c0,6.5,3.7,10,10.6,10H810v2H772Z"/><path d="M834.8,328.1h-2c-0.7-27.6,16.3-35.4,16.1-59.9-0.2-15.3-6.8-24.6-18.1-24.6-7.5,0-13.9,5.1-13.9,11s5.8,10.5,5.8,15.1-2.3,6-5.8,6c-5.1,0-9-5.1-9-12.1,0-13.9,11.8-24.4,27.6-24.4s27.9,11.8,27.4,28.2C862,294.9,837.1,298.1,834.8,328.1Zm0.5,36a8.7,8.7,0,1,1,8.6-8.6A8.7,8.7,0,0,1,835.2,364.1Z"/><path d="M957.3,314.5H913.1c1.9-19,3.1-37,2.9-52q0-4.6-.3-9h46.8c1.1,17.6-.7,37.7-5.2,61M955,325.3c-3.8,16.8-9.1,35.9-15.1,54.7H904.4c3.3-21.2,6.4-43.4,8.5-64.2H957q-0.9,4.7-2,9.5M922.4,428.1q-2.2,5.3-4.4,10.2H894.4c3.1-16.7,6.6-36.4,9.9-57.2h35.3c-5.3,16.6-11.2,32.8-17.1,47M885.2,485c0.7-3.5,4.4-20.9,9-45.4h23.4c-12.6,28.1-23.9,44-32.4,45.4M775.4,450.6q-4.2-5.3-8.2-11.1h41c11.6,24.4,21.3,41.5,23.6,45.5H812.1c-1.5-.7-16.5-8.8-36.7-34.5m-41.3-69.5h49.5c5.2,14.4,10.7,27.7,15.7,39.1,2.8,6.4,5.6,12.4,8.2,18.1H766.3a361.5,361.5,0,0,1-26.3-45q-3-6-5.9-12.2m-54.5-19.9q-4,9.5-8.4,18.7H633.3c5-15.8,9.2-31.8,12.8-47.9q1.8-8.2,3.4-16.4h46.8a479.2,479.2,0,0,1-16.7,45.5m-31.2,61q-5.1,8.3-10.4,16.1H611.6c3.3-7.6,6.7-16,10.2-25.1s7.7-21.3,11.1-32.1h37.7a452.8,452.8,0,0,1-22.3,41.1m-48,62.8h-12c2.3-3.9,11.6-20.1,22.7-45.5h26.1a355.4,355.4,0,0,1-36.8,45.5M490.7,441.9l-1.1-2.4H524c6.4,26.1,12.1,41.9,13.4,45.5H518.6c-1.6-1.6-14.1-14.8-27.9-43.2m-22.4-60.8h44c2.6,16.6,5.5,30.9,8.1,42.9q1.7,7.6,3.3,14.3H489a357.3,357.3,0,0,1-20.5-56.5l-0.2-.7m-13.1-65.4h49.2c2,23.9,4.7,45.5,7.7,64.2H468a510.8,510.8,0,0,1-12.8-64.2M436.3,359q-2.9,10.9-5.9,20.9H387.9c2.9-18.4,5.8-39.8,8.4-64.2h50.2c-2.4,11.6-5.8,26.6-10.2,43.3m-26.1,78.3h-33q1.3-5.8,2.6-12.3c2.5-12,5.2-26.6,7.9-43.9H430a584.2,584.2,0,0,1-19.9,56.2m-23.6,47.7H364.4c1.4-3.9,6.4-19.3,12.5-46.5h32.8a367,367,0,0,1-23.1,46.5M292,455.2c-2.6-5.2-5.1-10.8-7.5-16.7h34.8c3.6,16.8,8.4,32.3,15.1,46.5H315c-1-.4-10.5-5.1-23-29.8m-25.4-74.1h44.8c1.7,19.9,4,38.7,7.7,56.2H284.2v0.5c-6.8-17-12.6-36.5-17.7-56.7m-47.7-8.3-3,7.1H168.2a472.7,472.7,0,0,0,14.9-64.2h56.5c-4.9,15.4-11.9,35.7-20.8,57.1m-33.6,65.5H145.1a399.9,399.9,0,0,0,22.7-57.2h47.5c-9.6,22.1-19.7,41.3-30,57.2m-44.7,46.7H116.5c3.1-3.9,14.9-19.2,28.1-45.5h40c-14.3,21.7-29.1,37.1-44,45.5M64.9,455c-1.4-4.3-2.9-9.5-4.5-15.5H86.2v45.5H79.7c-0.9-.7-7.1-6-14.8-30m-27-201.5H87.7a236.8,236.8,0,0,0-1.4,26.7v34.2H40.3q-1.1-11.2-2.2-23.4a229.5,229.5,0,0,1-.3-37.6m13.9-63.9a296.7,296.7,0,0,1,36.4-68.8h40.8q-3.2,6-6.4,12.3A340.6,340.6,0,0,0,99,194.3H50.1l1.6-4.7m45-80.6A404.2,404.2,0,0,1,137,64h26.7a501.8,501.8,0,0,0-34.2,55.7H88.9q3.8-5.3,7.8-10.6m90.4-86.8h12.7A158.7,158.7,0,0,0,187,34.9H170.3c6-4.8,11.7-9,16.9-12.7M334.6,34.9H314.3c-4.9-6.2-8.9-10.8-10.5-12.7h5.6a170.9,170.9,0,0,1,25.3,12.7m51.7,44.9H344.4A181.1,181.1,0,0,0,335.3,64h36.8a172.3,172.3,0,0,1,14.2,15.9m-22.7,39.8H332.1a487.8,487.8,0,0,0-25-55.7h26.8a181.1,181.1,0,0,1,9.7,16.7h0c0.2,0.4,9.2,16.8,20.1,38.9m31.9,74.7h-43q-1.1-6.3-2.5-13a421.9,421.9,0,0,0-17.6-60.5h31.6c11,22.5,23.8,50.5,31.3,73.5m6.4,30.2c0,4.4-.1,7.1-0.1,8.3s0,0.5,0,.7h0q-0.6,9.6-1.2,18.8H357.7a334.7,334.7,0,0,0-4.9-56.9h43.1c3.2,9.9,5.4,18.9,5.9,25.9,0.1,1.1.1,2.2,0.1,3.1M403,233a232,232,0,0,1,8-37.5h52.5q-3.8,15.1-6.5,29.6c-1.9,10-3.2,19.1-4.1,27.3H401.8q0.6-9.2,1.2-18.8h0V233m11.8-49.6a326.6,326.6,0,0,1,29-62.6h44.1q-5.4,13.6-10.1,27c-5.5,15.8-10.2,31.3-14.1,46.5H411.4q1.6-5.2,3.5-10.9m53.8-99.2a0.6,0.6,0,0,0-.5-0.3H454.5c0.4-1.6,2-6.2,8.2-14,1.3-1.7,3-3.7,4.9-5.8h45.9c-9.3,18.7-17.7,37.3-25,55.7H444.6a348.8,348.8,0,0,1,24-34.8,0.6,0.6,0,0,0,.1-0.6m29-48.1h30.9l-5.9,9.6q-4.5,8.5-8.8,17.1H468.6c6.2-6.8,15.4-15.6,29.1-26.6m18.1-13.9h21.3l-7.8,12.7H499.2c5-4,10.5-8.2,16.6-12.7M823.2,62.8H802.2L776.8,42l6,2.4a426.5,426.5,0,0,1,40.3,18.4m57.5,43.5H855L803.6,64h21.9q6.6,3.5,12.6,7.1c18.8,11.3,33.2,23.1,42.7,35.2m-11.4,13.4H832.6l-11.7-11.2c-15.3-15-33.3-30.6-50.1-44.4h30.9l52.6,43.4h0c0.2,0.2,6.1,4.9,14.9,12.3m70.6,69.2q2,2.7,3.8,5.4H898.4c-14.9-27-37.3-47.9-59.2-68.4l-5.4-5h36.9c19.8,16.7,52.4,45.7,69.2,68m-40.8,6.6h45.4c9.7,15,15.4,31.9,17.4,51.3q0.3,2.7.5,5.6H915.6a138.5,138.5,0,0,0-16.5-56.9m-32.5,56.9c-0.5-5.4-1.2-10.9-2.1-16.5a164.8,164.8,0,0,0-12.2-40.3h45.5a138.3,138.3,0,0,1,16.6,56.9H866.6Zm-0.1,127.6c0-25.1,0-49,.1-64.2h45.1c-2.1,20.9-5.2,43-8.5,64.2H866.5Zm0.1,58.4c-0.1-17.4-.1-37.6-0.1-57.2H903c-3.3,20.8-6.8,40.6-9.9,57.2H866.7Zm-29.3,1.2h28.1c0.1,23.8.2,42,.2,45.5H855c-1.2-2.5-9.2-19.2-17.7-45.5m-1.3,0c8,25.2,15.7,41.7,17.6,45.5H833.1c-1.4-2.4-11.5-19.9-23.7-45.5h26.6Zm-14.5-58.4A470.6,470.6,0,0,0,835,436.2l0.7,2.2H808.9c-2.7-5.8-5.6-12-8.5-18.5-5-11.4-10.4-24.5-15.6-38.7h36.7Zm-55.7-65.4h48.7a446.3,446.3,0,0,0,6.8,64.2H784.4a470.2,470.2,0,0,1-18.6-64.2m-60.2-62.2H757l1.2,13c0.5,5.6,1,11.3,1.6,17.2a296.4,296.4,0,0,0,4.6,30.8H708.1q-2.8-8.5-5.5-17.4a406.1,406.1,0,0,0,3-43.6m-47.7,0h46.5a401.6,401.6,0,0,1-3,43.5c-0.1.4-1.6,6.8-4.8,17.5H649.7a551.6,551.6,0,0,0,8.2-61m-52.5,61c2.3-20,3.9-40.7,4.6-61h46.7a550.5,550.5,0,0,1-8.2,61H605.4Zm-9.5,65.4c3.4-19.5,6.8-41.4,9.4-64.2h43.1q-1.6,8-3.3,16.1c-3.6,16.1-7.9,32.2-12.9,48.1H595.8Zm-11.6,58.4c1.9-8.4,3.8-17.6,5.8-27.4s3.7-19,5.6-29.8h36q-5,16-11,31.6c-3.5,9.3-7,17.9-10.4,25.6H584.2Zm-0.3,1.2h25.8c-11.7,26.8-21.4,43.2-22.8,45.5H572.9c1-3.7,5.5-20.7,11.1-45.5m-30.7,0h29.5c-5.7,25.5-10.3,42.6-11.1,45.5H553.7c0-3.4-.3-21.4-0.5-45.5m-1.2,0c0.2,24.1.5,42.1,0.5,45.5H538.7c-1-2.6-6.8-18.5-13.5-45.5H552Zm-0.4-58.4c0.1,20.2.2,40.2,0.4,57.2H524.9q-1.7-6.8-3.4-14.6c-2.6-11.9-5.4-26.2-8.1-42.6h38.1Zm0.1-65.4c-0.2,18.8-.2,41.6-0.1,64.2H513.3c-3-18.7-5.7-40.3-7.7-64.2h46.1Zm-49.2-62.2H554l-0.7,12.9-0.7,12.5c-0.4,7.7-.7,20.3-0.9,35.6H505.5c-1.6-18.9-2.6-39.3-3-61m4.4-58.1c-3.6,20.2-5.8,39.9-5.6,56.9H454.1c0.9-8.1,2.3-17.2,4.1-27.1s4-19.7,6.6-29.8h42.1Zm17.6-74.7c-6.4,22.6-12.9,48.5-17.4,73.5h-42c3.9-15.1,8.5-30.5,14-46.1q4.7-13.6,10.2-27.4h35.3ZM542.3,64c-4.2,12.3-8.8,26.6-13.4,41.9-1.3,4.4-2.7,9-4,13.8H489.7c7.4-18.4,15.7-37,25.1-55.7h27.5ZM552,36.1c-2.5,6.9-5.7,16-9.4,26.6H515.4q4.1-8.2,8.5-16.5L530,36.1h22Zm0.4-1.2H530.8l7.8-12.7h18.7c-0.7,1.7-2.3,6.2-4.7,12.7m20.4,0H553.7c2.5-7,4.3-11.4,4.7-12.7h17.1c-0.9,3.6-1.8,7.8-2.7,12.7m17.3,0h-16c0.9-4.9,1.8-9.2,2.7-12.7h10.9c0.3,1.4,1.2,5.8,2.4,12.7m17.5,0H591.3c-1.2-6.7-2.1-11.1-2.4-12.7h11.4c0.7,1.2,3.4,5.6,7.3,12.7m33.1,0H609c-3.5-6.5-6.1-10.9-7.2-12.7h26.7q6.4,6,12.2,12.7m25.6,0h-24q-5.8-6.7-12.1-12.7h24.9q5.8,6.4,11.2,12.7m26.1,0H667.9q-5.4-6.3-11.2-12.7h23.7l12,12.7m21.5,0H694l-12-12.7h16.8c4.5,3.5,9.6,7.8,15,12.7m18.3,0H715.7c-5.4-4.9-10.4-9.2-14.9-12.7h14.4c1.1,0.8,7.5,5.5,17,12.7m2,0L718.3,23c6,1.6,20.7,5.7,39,12H734.2Zm1.6,1.2h25l12.5,4.5h0l27.1,22.1H769.4C756.8,52.5,745,43.3,735.8,36.1m8.4,26.6c-9.6-9.9-18.8-19-27.1-26.6h16.8c9.2,7,21,16.3,33.7,26.6H744.1Zm51.8,56.9c-16.7-19.4-34.3-38.7-50.6-55.7h23.6C786,78,804.5,93.9,820,109.3l10.8,10.4H795.9Zm37.3,44.8c-10.9-13.7-23.3-28.6-36.3-43.6h35.2l6.3,5.9c18.6,17.4,37.8,35.3,52.1,56.8q3.6,5.3,6.6,10.8H851.7a147.4,147.4,0,0,0-18.4-29.8M800,194.3c-2-6.1-4.3-12.2-6.8-18.2a326.2,326.2,0,0,0-29.8-55.3h32c13.2,15.2,25.8,30.4,36.9,44.4a146.1,146.1,0,0,1,18,29.1H800Zm12.3,58.1q-0.6-5.6-1.4-11.1a275.5,275.5,0,0,0-10.5-45.7h50.5A163.5,163.5,0,0,1,863.3,236c1,5.6,1.6,11,2.1,16.3H812.3Zm-1.1,1.2c2.1,19.4,2.8,39,3.2,57.5q0,1.8.1,3.5H765.6a295.8,295.8,0,0,1-4.7-30.9c-0.6-5.8-1.1-11.6-1.6-17.2l-1.2-12.9h53Zm-60.4-58.1h48.3a274.1,274.1,0,0,1,10.6,45.9c0.5,3.6,1,7.3,1.4,11h-53c-1.9-19.8-3.9-38.5-7.3-56.9m-47.5,0h46.2c3.4,18.4,5.4,37,7.3,56.9H705.6a483.5,483.5,0,0,0-2.3-56.9m-44.2,34.3a307.9,307.9,0,0,0-.9-34.3h43.9a482.3,482.3,0,0,1,2.3,56.9H658q0.8-11.3,1.2-22.6m-49.6-34.3h47.5a306.8,306.8,0,0,1,.9,34.2q-0.3,11.3-1.2,22.6H610c0.6-19,.3-38.2-0.5-56.9m-46.6-74.7c-2.1,24.3-3.9,49.9-5.4,73.5H508.3c4.5-25,11-50.8,17.5-73.5h37.2ZM568.6,64c-2,16.5-3.9,35.7-5.6,55.7H526.1c1.3-4.6,2.6-9.1,3.9-13.4,4.6-15.5,9.3-29.9,13.5-42.2h25.1Zm0.1-1.2H543.9c3.6-10.7,6.9-19.8,9.4-26.6h19.4c-1.3,7.6-2.6,16.6-3.9,26.6m26,0H570c1.2-10,2.5-19,3.9-26.6h16.5c1.2,6.8,2.8,15.9,4.5,26.6m26.6,0H596c-1.7-10.7-3.2-19.8-4.5-26.6h16.7c3.6,6.8,8.2,15.8,13.1,26.6m39.8,0H622.7c-4.8-10.8-9.4-19.8-13-26.6h32.1a207.8,207.8,0,0,1,19.4,26.6m27.7,0H662.6a209.8,209.8,0,0,0-19.2-26.6h24Q679,49.8,688.8,62.8m28.5,0h-27q-9.8-13-21.4-26.6h24.6q12.8,13.8,23.9,26.6m1.6,0q-11.1-12.9-23.8-26.6h20.1c8.3,7.6,17.6,16.7,27.2,26.6H718.9Zm1,1.2h23.7c16.3,16.9,33.9,36.3,50.7,55.7H762.6A582.2,582.2,0,0,0,720,64m6,55.7a324.5,324.5,0,0,0-16.9-29.8Q701,77.1,691.2,64h27.2a585.5,585.5,0,0,1,42.8,55.7H725.9Zm12.7,29.9a276.9,276.9,0,0,0-12.1-28.7H762c12.8,19.3,22.7,37.7,30.1,55.7,2.4,5.9,4.6,11.8,6.6,17.8H750.6a294.2,294.2,0,0,0-11.9-44.8m-87.1.6q-3.1-14.5-7.4-29.3h43.1A372.9,372.9,0,0,1,702,194.3H658.2a356.5,356.5,0,0,0-6.6-44.2m-47.8-29.3h39.2q4.4,14.9,7.5,29.6a355.5,355.5,0,0,1,6.6,43.9H609.5c-1.1-26.4-3.3-51.6-5.7-73.5m-1.2,0c2.4,21.9,4.6,47.1,5.8,73.5H558.7c1.5-23.6,3.3-49.1,5.4-73.5h38.4Zm-3-25.2c1,7.4,1.9,15.5,2.9,24.1H564.2c1.7-20,3.6-39.2,5.6-55.7H595c1.5,9.4,3,20,4.5,31.6m30.9-11.4c4.6,11.8,8.7,23.7,12.2,35.5H603.6c-1-8.7-2-16.8-2.9-24.2-1.5-11.5-3-22.1-4.5-31.4h25.7c2.8,6.2,5.6,12.9,8.4,20.2M663.3,64h26.5c6.7,9,12.8,17.8,18.3,26.5a323.4,323.4,0,0,1,16.5,29.2H688.1q-2.5-8-5.4-15.5A250.9,250.9,0,0,0,663.3,64m18.3,40.5q2.8,7.4,5.3,15.1H643.8c-3.5-12-7.6-24-12.3-35.9-2.8-7.1-5.5-13.7-8.2-19.7h38.7a249.2,249.2,0,0,1,19.7,40.5m21.7,89.8a374.4,374.4,0,0,0-14.8-73.5h36.7a275.7,275.7,0,0,1,12.3,29.1,292.7,292.7,0,0,1,11.9,44.4H703.2ZM502.5,252.4c-0.2-17,2-36.6,5.6-56.9h49.4c-1.4,21.4-2.5,41.2-3.4,56.9H502.5Zm52.8,0c0.9-15.7,2-35.4,3.4-56.9h49.7c0.8,18.7,1,37.9.5,56.9H555.2Zm-2.4,62.2c0.1-15.3.4-27.9,0.9-35.6l0.7-12.5,0.7-12.9h53.6c-0.7,20.3-2.3,41-4.6,61H552.9Zm41.5,66.6c-1.9,10.6-3.8,20.6-5.6,29.5s-4,19.3-5.9,27.7H553.2c-0.2-17-.3-37.1-0.4-57.2h41.6Zm-41.6-1.2c-0.1-22.6-.1-45.4.1-64.2H604c-2.6,22.8-6,44.7-9.4,64.2H552.8Zm269.8,0a444.8,444.8,0,0,1-6.8-64.2h49.7c-0.1,15.2-.2,39.1-0.1,64.2H822.6Zm13.6,55.9a469.5,469.5,0,0,1-13.4-54.7h42.6c0,19.6.1,39.8,0.1,57.2H836.9l-0.8-2.5m29.8-140.4c-0.1,2.9-.2,5.6-0.3,8.1s-0.1,6.4-.2,11H815.7q-0.1-1.8-.1-3.5c-0.4-18.5-1.1-38-3.2-57.5h53.1c1.3,16,.8,30.5.4,41.9M401.7,253.6h51c-2.1,18.6-2.1,31.9-1.6,37.6-0.1.8-1.5,9.6-4.4,23.4H396.4c2-18.6,3.8-38.9,5.3-61m-45.8,61c0.8-22.6,1.3-39.4,1.3-43.1,0-1,.1-2.5.1-4.4s0.3-7.8.3-13.4h42.8c-1.5,22-3.3,42.4-5.3,61H356Zm-2.3,65.4c0.8-22.6,1.6-45.4,2.3-64.2h39.2c-2.6,24.4-5.5,45.8-8.4,64.2h-33Zm-2.1,57.4c0.6-16.8,1.3-36.5,2.1-56.2h32.9c-2.7,17.1-5.4,31.7-7.9,43.6q-1.4,6.7-2.7,12.6H351.5Zm0,1.2h24.2c-6.3,28.1-11.4,43.4-12.5,46.5H349.8c0.2-4.1.8-22.3,1.7-46.5m-1.2,0c-0.9,24.3-1.6,42.6-1.7,46.5H335.8c-6.7-14.2-11.6-29.8-15.2-46.5h29.7Zm2.1-57.4c-0.7,19.8-1.4,39.4-2.1,56.2h-30c-3.7-17.5-6-36.3-7.7-56.2h39.8Zm-43.6-65.4h45.9c-0.6,18.8-1.5,41.6-2.3,64.2H312.5c-1.7-20.3-2.7-41.7-3.7-64.2m-60.3-62.2h55.8c1.4,20.7,2.3,40.8,3.2,60.5v0.4H252.9c-1.5-9-2.9-17.6-4.1-25.8Zm-62.7,43.9c1.9-15.1,3.6-29.7,5.2-43.9h56.4l0.3,35.1c-0.2.9-2.8,10.9-7.6,25.8H183.4q1.4-8.5,2.4-17.1m-51.5,17.1c1.8-20.8,3.7-41.1,5.9-61h49.5c-1.6,14.1-3.3,28.6-5.1,43.7q-1.1,8.8-2.5,17.2H134.3Zm-6.7,65.4c1.8-13.4,3.5-28.3,4.9-44.9l1-11.7,0.7-7.5H182a471.5,471.5,0,0,1-15,64.2H127.6Zm-10.2,58.4c3.2-14.3,6.8-33.2,10-57.2h39.1a397.9,397.9,0,0,1-22.7,57.2H117.4Zm-3.8,15.4c1.1-4.1,2.3-8.8,3.5-14.2h26.1c-14.1,28.3-26.7,43.6-28.3,45.5H102.8c1.4-2.8,5.7-12.3,10.8-31.3m2.3-14.2c-1.2,5.2-2.3,9.8-3.4,13.8-5.5,20.7-10.1,30-11,31.7H87.4V439.5h28.5ZM87.4,381.1h38.8c-3.2,24.1-6.8,42.9-10,57.2H87.4V381.1Zm-1.2-1.2H48.6c-2.8-18-5.5-39.2-8.1-64.2H86.2v64.2ZM133,315.7l-0.7,7.4-1,11.7c-1.5,16.7-3.2,31.7-4.9,45.1H87.4V315.7H133Zm32.8-194.9a524.9,524.9,0,0,0-18.4,73.5H100.3a339.3,339.3,0,0,1,23.3-60.6q3.4-6.7,6.7-12.9h35.6ZM189.6,64a413.8,413.8,0,0,0-23.3,55.7H130.9A498.4,498.4,0,0,1,165.2,64h24.4Zm16.3-29H188.7a138,138,0,0,1,13-12.7H214q-4.2,6.4-8.1,12.7m19.1,0H207.3q3.9-6.4,8.2-12.7h15.1q-3,6-5.6,12.7m20.6,0H226.2q2.7-6.7,5.7-12.7h13.5V34.9Zm20,0H246.7V22.2h14.1c0.5,1.2,2.3,5.4,4.8,12.7m23.8,0H266.8c-2.4-6.8-4.1-11-4.8-12.7h19.3q4.1,6.3,7.9,12.7m1.4,0q-3.9-6.4-7.9-12.7h19.4c0.9,1,5,5.8,10.6,12.7H290.7ZM275.4,62.8c-3.1-11.1-5.9-20-8.2-26.6H290q8,13.3,15.1,26.6H275.4Zm13.2,56.9C284.2,96.8,279.7,78.6,276,65l-0.3-1h30a487.2,487.2,0,0,1,25.1,55.7H288.6Zm11.5,74.7c-3.3-28.1-7.3-52.7-11.3-73.5h42.4a420.8,420.8,0,0,1,17.7,60.8q1.4,6.6,2.4,12.7H300.1ZM248,195.5h51l0.3,2.9c2.1,18.6,3.6,36.5,4.8,54H248.5Zm-52.3,13.7,1.5-13.7h49.7l0.5,56.9H191.1c1.6-14.7,3.1-29.1,4.6-43.1m0.3-13.7-1.4,13.6c-1.5,14.1-3,28.5-4.6,43.3H140.4c2.2-19.3,4.8-38.2,8.1-56.9H196Zm8.9-74.7c-3.2,22.4-6,47-8.8,73.5H148.7a522.8,522.8,0,0,1,18.4-73.5h37.7ZM215.7,64A534.9,534.9,0,0,0,205,119.6H167.5A412.3,412.3,0,0,1,190.9,64h24.8Zm0.3-1.2H191.5q6.9-13.3,15-26.6h17.9A246.1,246.1,0,0,0,216,62.8m29.7,0H217.2a243.3,243.3,0,0,1,8.5-26.6h19.8Zm1.2,0-0.2-26.6h19.2c2.3,6.6,5.1,15.5,8.2,26.6H246.9Zm0.5,58.1h40.2c4,20.8,8,45.3,11.3,73.5H248Zm-41.2-1.2c3-20.4,6.4-39,10.7-55.7h28.8l0.5,55.7h-40Zm40,1.2,0.6,73.5H197.3c2.8-26.5,5.5-51.1,8.8-73.5h40.2Zm28.6-55.5c3.7,13.5,8.1,31.7,12.5,54.3h-40L246.9,64h27.5l0.4,1.3M308.7,314c-0.9-19.7-1.8-39.8-3.2-60.5h51c0,5.6-.2,10-0.3,13.4s-0.1,3.4-.1,4.5c0,3.8-.5,20.5-1.3,43.1h-46V314m47.8-61.7H305.4c-1.2-17.5-2.7-35.5-4.8-54.1l-0.3-2.8h51.3a333.6,333.6,0,0,1,5,56.9M333.1,62.8H306.4q-7.1-13.4-15-26.6h22.3c5.8,7.3,12.9,16.8,19.4,26.6m3.5-26.6a197.6,197.6,0,0,1,34.3,26.6H334.5c-6.4-9.8-13.4-19.3-19.3-26.6h21.3ZM164.6,62.8H138.3c10.6-10.2,21-19.1,30.5-26.6h17.2c-2.6,2.8-5.4,6.1-8.5,9.9s-8.1,10.1-12.8,16.8m13.7-16c3.4-4.1,6.5-7.7,9.2-10.7h17.6Q197,49.4,190.2,62.8H166.1c4.5-6.3,8.7-11.6,12.3-16M87.8,252.4H37.9a238.4,238.4,0,0,1,11.7-56.9h49a361.1,361.1,0,0,0-8.6,39.6c-1,6.3-1.7,12.1-2.3,17.2m3.5-17.1a359.9,359.9,0,0,1,8.6-39.8h47.4c-3.3,18.6-5.9,37.5-8.1,56.9H89c0.5-5.1,1.3-10.9,2.3-17.1m-2.4,18.3h50.2c-2.2,19.9-4.1,40.2-5.9,61H87.4V280.3a235.9,235.9,0,0,1,1.5-26.7M48.8,381.1H86.2v57.2H60.1c-3.6-13.9-7.5-32.5-11.3-57.2m217.6-1c-5.3-21.5-9.7-43.7-13.2-64.4h54.5c1,22.5,2,43.9,3.7,64.2h-45v0.2ZM455,314.7q-1.6-11.6-2.7-23.5c-0.5-5.6-.5-18.9,1.6-37.5h47.4c0.4,21.7,1.5,42.1,3,61H455Zm253.5,1.1h56.1a470.3,470.3,0,0,0,18.5,64.2H733.5a614.2,614.2,0,0,1-25-64.2M883.9,485.1H866.8c0-3.5-.1-21.7-0.2-45.5H893c-4.7,25.4-8.5,43.2-9,45.5m30.9-222.5c0.1,15-1,32.9-2.9,52H866.7c0-4.6.1-8.3,0.2-11s0.2-5.2.3-8c0.4-11.4.9-25.8-.4-41.9h47.8q0.3,4.4.3,9m48.3-15.9c-2.4-22.5-9.7-41.7-22.3-58.5-22.9-30.5-75.4-73.4-84.4-80.7H882a0.6,0.6,0,0,0,.5-1c-9.5-12.5-24.3-24.7-43.7-36.4-15.6-9.3-34.2-18.4-55.4-26.8A586.3,586.3,0,0,0,715.6,21H515.3c-60.1,44.1-62.1,62.5-62.1,63.3a0.6,0.6,0,0,0,.2.5l0.4,0.2h13.2a335.2,335.2,0,0,0-53.2,98,267.8,267.8,0,0,0-10.6,41.2c0-.9,0-1.9-0.1-3-0.9-11.5-6.8-35.7-30.3-85.7-12.6-26.7-25-49.8-27.6-54.6h42.4a0.6,0.6,0,0,0,.5-1c-16.8-21.8-37.2-36.7-51.3-45.3a172.6,172.6,0,0,0-27-13.7h-123c-24.3,17.4-59.8,46.6-90.8,87.2-20,26.1-35.2,53.4-45.2,80.9a235.7,235.7,0,0,0-13.7,102C45.2,384.2,56.2,432.1,64,456c8.5,26.1,15,30,15.3,30.2h61.8c15.3-8.7,30.5-24.5,45.1-46.9,10.5-16.1,20.7-35.6,30.5-58.1h0l3.3-7.8a713.5,713.5,0,0,0,28-81.6c6.1,40.6,13.3,76,21.4,105.2,6.7,24,14,43.9,21.7,59.2,13.2,26.3,23.1,29.9,23.5,30.1h72.2a0.6,0.6,0,0,0,.5-0.3c19.6-32.7,34-72.2,43.9-104.9h0c2.3-7.7,4.4-15,6.2-21.8,7.9-29.8,12.5-54,14.1-63.6a531.9,531.9,0,0,0,15.8,86.6,353.1,353.1,0,0,0,22.3,60.2c14.8,30.4,28.1,43.5,28.3,43.6l0.4,0.2h82.2l0.4-.2a369.2,369.2,0,0,0,48.3-63.2,465.7,465.7,0,0,0,31.3-61.1,444.3,444.3,0,0,0,21.4-62.3c10.8,35.5,23.2,67.3,36.8,94.6,11.1,22.3,23.1,41.6,35.6,57.4,21.3,27,37,34.7,37.1,34.8H884c7.2,0,19.9-10,39.6-57.7a688.1,688.1,0,0,0,32.6-103.1c7-31.2,9.3-57,7-78.8"/></svg>