<?xml version="1.0" encoding="utf-8"?>
<svg version="1.1" xmlns="http://www.w3.org/2000/svg" xmlns:xlink="http://www.w3.org/1999/xlink" viewBox="0 0 1600 1000">
  <defs><style>.cls-2{fill:#fc8aff}.cls-3{fill:none;stroke:#fc8aff;stroke-miterlimit:10;stroke-width:11.85px}.path{stroke-dasharray:15000;stroke-dashoffset:15000;animation:dash 3s ease-in infinite;-moz-animation:dash 3s ease-in infinite;-webkit-animation:dash 3s ease-in infinite;z-index:9999;transform:translate(0,-25px)}@keyframes dash{95%{opacity:1}100%{stroke-dashoffset:0;opacity:0}}@-moz-keyframes dash{95%{opacity:1}100%{stroke-dashoffset:0;opacity:0}}@-webkit-keyframes dash{95%{opacity:1}100%{stroke-dashoffset:0;opacity:0}}.or{opacity:0;animation:opa 3s ease-in infinite;-webkit-animation:opa 3s ease-in infinite;-moz-animation:opa 3s ease-in infinite}@keyframes opa{0%{opacity:0}20%{opacity:0}30%{opacity:1}95%{opacity:1}100%{opacity:0}}@-webkit-keyframes opa{0%{opacity:0}20%{opacity:0}30%{opacity:1}95%{opacity:1}100%{opacity:0}}@-moz-keyframes opa{0%{opacity:0}20%{opacity:0}30%{opacity:1}95%{opacity:1}100%{opacity:0}}

  </style>

  <filter id="displacementFilter">
  <feTurbulence id="test4" type="turbulence" baseFrequency="0.05"
  numOctaves="2" result="turbulence"/>
  <feDisplacementMap in2="turbulence" in="SourceGraphic"
  scale="100" xChannelSelector="R" yChannelSelector=""/>
  </filter>
  <animate
    xlink:href="#test4"
    id="anim-test"
    attributeName="baseFrequency"
    from="0.09"
    to="0.08"
    dur="3s"
    fill="freeze"
    repeatCount="indefinite"
  />
</defs>

  <title>web2020-soundboard-9-main</title><rect fill="#FF1E00" class="cls-1" width="1600" height="1000"/>

  <g class="or">
    <path class="cls-2" d="M409,159.11q0,26.13-11.74,44.91-13.89,22.11-38.83,22.11-24.68,0-38.65-21.51Q307.69,186,307.69,160q0-26.65,11.57-45.51Q333.06,92,358.43,92q25,0,38.83,21.94Q409,132.54,409,159.11Zm-87.59,0q0,20.56,8.22,35.65,10,18.44,28.8,18.43t28.8-18.43q8.06-14.91,8.06-35.65t-8.06-35.66Q377.29,105,358.43,105t-28.8,18.43Q321.41,138.54,321.41,159.11Z"/>
    <path class="cls-2" d="M429.32,130v14.4q7.23-16,17.46-17.05h6.71V141a29.85,29.85,0,0,0-11.44,2.06q-12.74,7-12.73,29.31V222.1h-12V130Z"/>
    <path class="cls-2" d="M475.78,222.1a32.61,32.61,0,0,1-5.33,18.69q-4.5,6.68-9.67,7.63v-8.06q8.67-5.49,8.66-18.26h-8.66V203.85h15Z"/><path class="cls-2" d="M527.05,94.14h40.37q22.46,0,33.77,21.25,9,16.89,9,41.4,0,30.26-12.17,48.6Q587,222.1,571.28,222.1H527.05Zm13.46,115.11h29.31q15.76,0,22.54-21.26,4.38-13.89,4.37-33.86,0-17.91-6.34-30.68Q582.25,107,566.14,107H540.51Z"/>
    <path class="cls-2" d="M650.48,127.31q18.43,0,27.17,16.37,6.86,12.76,6.86,33t-6.86,33q-8.74,16.47-27.17,16.46t-27.25-16.37q-6.87-12.85-6.86-33.08,0-20.06,6.94-32.92Q632.15,127.31,650.48,127.31Zm21.77,49.37q0-14.35-5.31-25.43-6.18-12.8-16.46-12.8-12,0-17.66,14-4.11,10.14-4.11,24.23,0,14.69,5.23,25.6Q640,215,650.48,215T667,202.28Q672.26,191.36,672.25,176.68Z"/>
    <path class="cls-2" d="M724,215q9.42,0,15-8.52,2.22-3.36,5.14-12.48h12.34q-5.4,32.14-32.31,32.14-18.86,0-27.51-16.2Q690,197.33,690,176.68q0-19.45,7.71-32.92,9.43-16.45,27.52-16.45t26.48,17.05q6.43,12.94,6.43,32.92,0,.51-.09,2.91H702.77v5.41a37.25,37.25,0,0,0,4.8,18.13Q713.73,215,724,215Zm.51-76.54q-18.51,0-21.77,30.43h42.17q0-11.81-4.29-20Q735.25,138.46,724.54,138.45Z"/>
    <path class="cls-2" d="M792.63,215.42q18.75,0,18.74-16.12,0-11.13-8.21-13.54a245.3,245.3,0,0,1-25.07-8.57q-14.21-6-14.2-23.06,0-12.25,7.88-19.54T792,127.31q27.6,0,28,28.45H808.11q0-17.31-17.22-17.31a15.84,15.84,0,0,0-15.26,15.27q0,9.53,8.91,13.39.6.25,15.18,4.71,11,3.35,15.25,6.52,8.4,6.18,8.4,19.31,0,13.47-8.57,21.19-8.14,7.46-21.77,7.46-30.94,0-30.94-31.37h11.38a25.4,25.4,0,0,0,4.45,13.29Q783.05,215.42,792.63,215.42Z"/>
    <path class="cls-2" d="M883,94.14v128H869.5v-128Z"/>
    <path class="cls-2" d="M959.41,222.1H949V211.56q-7.55,14.58-23.4,14.57-18,0-26.74-17.14-6.78-13.29-6.77-33.26,0-18.42,6.69-31.62,8.58-16.8,25.32-16.8,16.41,0,23.35,13.88v-47h12Zm-12-45.08q0-18.9-7-29.46-6.11-9.1-14.6-9.11-11,0-16.32,14.52a66.9,66.9,0,0,0-3.86,23.54q0,15,4.81,25.85Q916,215,925.94,215q11.77,0,17.35-13.75Q947.42,191.12,947.41,177Z"/>
    <path class="cls-2" d="M1001.07,215q9.43,0,15-8.52,2.23-3.36,5.15-12.48h12.34q-5.4,32.14-32.31,32.14-18.86,0-27.52-16.2-6.68-12.6-6.68-33.25,0-19.45,7.71-32.92,9.43-16.45,27.51-16.45t26.49,17.05q6.42,12.94,6.43,32.92,0,.51-.09,2.91H979.82v5.41a37.25,37.25,0,0,0,4.8,18.13Q990.79,215,1001.07,215Zm.52-76.54q-18.51,0-21.77,30.43H1022q0-11.81-4.29-20Q1012.3,138.46,1001.59,138.45Z"/><path class="cls-2" d="M1056.19,141.54q6.27-14.23,23.79-14.23,11.25,0,17.73,6.81t6.48,18.13V222.1h-12V155.87q0-7.47-3.79-12.27-4.05-5.15-11.37-5.15-11.44,0-16.79,11.24-4,8.42-4,21.28V222.1h-12V130h12Z"/>
  <path class="cls-2" d="M1143.8,130v11.15h-11.92V209.5q0,5.4,6.34,5.4a27.53,27.53,0,0,0,5.58-.68v10.71a47.9,47.9,0,0,1-9.43,1.29,15.5,15.5,0,0,1-10.29-3.44,12.15,12.15,0,0,1-4.37-9.78V141.11h-10.46V130h10.46V105h12.17V130Z"/><path class="cls-2" d="M1149.8,112.39V94.14h12v18.25Zm0,109.71V130h12V222.1Z"/>
  <path class="cls-2" d="M1201.75,130v11.15h-11.92V209.5q0,5.4,6.35,5.4a27.44,27.44,0,0,0,5.57-.68v10.71a47.81,47.81,0,0,1-9.43,1.29,15.5,15.5,0,0,1-10.28-3.44,12.12,12.12,0,0,1-4.38-9.78V141.11h-10.45V130h10.45V105h12.17V130Z"/>
  <path class="cls-2" d="M1232.78,243.43q-5.22,17.41-19.88,17.24a11.24,11.24,0,0,1-7.12-2.33V247.22a15.55,15.55,0,0,0,6.6,1.71q5.58,0,9-10.81l4.63-14.58L1201.07,130h12.77l19.37,69.69L1254,130h13Z"/>
  <path class="cls-2" d="M693.55,251.33v12.86H634.24v42.08h57.08v12.86H634.24v47.31H696V379.3H620.79v-128Z"/>
  <path class="cls-2" d="M699.3,379.3l26.49-47.23-24.94-44.91h13.71l18.26,32.48,18.25-32.48h13.54L739,331.9l26,47.4H751.41L732.3,344.93,712.93,379.3Z"/>
  <path class="cls-2" d="M771.31,269.59V251.33h12v18.26Zm0,109.71V287.16h12V379.3Z"/>
  <path class="cls-2" d="M822.17,372.61q18.74,0,18.74-16.11,0-11.14-8.21-13.54a246.67,246.67,0,0,1-25.07-8.58q-14.21-6-14.2-23.05,0-12.25,7.88-19.54t20.23-7.29q27.6,0,28,28.46H837.65q0-17.31-17.23-17.32a15.86,15.86,0,0,0-15.25,15.27q0,9.52,8.91,13.39.6.26,15.17,4.72,11,3.35,15.26,6.52,8.4,6.18,8.4,19.3,0,13.47-8.57,21.19-8.15,7.47-21.77,7.47-30.95,0-30.94-31.37H803a25.45,25.45,0,0,0,4.44,13.28Q812.6,372.61,822.17,372.61Z"/>
  <path class="cls-2" d="M888.23,287.16V298.3H876.31v68.39q0,5.42,6.35,5.41a27.54,27.54,0,0,0,5.57-.69v10.71a47.9,47.9,0,0,1-9.43,1.29A15.53,15.53,0,0,1,868.51,380a12.17,12.17,0,0,1-4.37-9.78V298.3H853.69V287.16h10.45V262.22h12.17v24.94Z"/>
  <path class="cls-2" d="M919.18,334.56q0-10.72,12.68-25.63,4.36-5.24,5.74-6.86a29.7,29.7,0,0,0,4.63-7.37,33,33,0,0,0,2.49-12.26,23.58,23.58,0,0,0-4.46-14.31,15.36,15.36,0,0,0-12.94-6.77q-13,0-17.23,12.77-1.55,4.71-2,16.71H895.69v-.68q0-17.4,6.52-27.86,7.88-12.68,24.34-12.68,15.42,0,23.57,9.25,7.71,8.75,7.71,24.35A43.2,43.2,0,0,1,956.46,295q-2.4,8.4-16,23.66-8.05,9.09-8,18.08v8.32h-13.2ZM932.38,361V379.3h-13.2V361Z"/>
</g>

<path class="cls-2" d="M345.35,599.55H312.2L276.81,470.1H275L240.49,599.55h-33L170.64,417h18.63l35,170.43h1.86L260.61,458h30.73l35.39,129.45h1.86L362.49,417h18.63Z"/><path class="cls-2" d="M391.36,417H410V558.57H391.36Zm95,73.58v68H467.72v-68c0-10.25-6-16.77-14.9-16.77-9.12,0-21,8.94-29.8,22.35h-1.86V470.1a59.1,59.1,0,0,1,31.66-9.32C472.94,460.78,486.35,472.7,486.35,490.59Z"/><path class="cls-2" d="M557.13,599.55H537.2l19-41H544.09L495.66,458h20.12L559,547.77h1.86L602.39,458h19.93Z"/><path class="cls-2" d="M703.34,558.57H684.71V439.36h18.63Z"/><path class="cls-2" d="M803,470.47V490h-1.86c-9.12-5.78-19.74-8.76-31.66-8.76-21.79,0-36.32,10.81-36.32,27s14.53,27,36.32,27c12.11,0,22.54-3,31.66-8.94H803V545.9a53.34,53.34,0,0,1-30.73,9.88c-14.71,0-26.63-4.29-35.76-13s-13.6-20.12-13.6-34.46,4.47-25.7,13.6-34.46,21-13,35.76-13A53.13,53.13,0,0,1,803,470.47ZM832.79,417V558.57H814.16V417Z"/><path class="cls-2" d="M953.48,515.73H860.91c3.91,13.22,18.44,21.42,38.55,21.42,12.48,0,22.91-3.17,31.67-9.31H933v17.69c-8,6.15-20.68,10.25-31.66,10.25-15.28,0-27.57-4.29-36.88-13s-14-20.12-14-34.46,4.65-25.7,14-34.46,21.6-13,36.88-13c11,0,23.65,4.1,31.66,10.25v17.69h-1.86c-8.76-6.14-19.19-9.31-31.67-9.31-19.55,0-34.08,7.82-38.37,20.49h92.39Z"/><path class="cls-2" d="M963.16,558.57V458h18.63V558.57Zm95-68v68h-18.63v-68c0-10.25-6-16.77-14.9-16.77-9.12,0-21,8.94-29.8,22.35H993V470.1a59.1,59.1,0,0,1,31.66-9.32C1044.74,460.78,1058.15,472.7,1058.15,490.59Z"/><path class="cls-2" d="M1065.6,515.73V499.9H1101V435.08h18.62V499.9H1168v15.83Zm80.09,68.54H1101V526.91h18.62v40.6h26.08Z"/><path class="cls-2" d="M1207,433.78h-44.71V417H1207ZM1175.3,558.57V458h18.63V558.57Z"/><path class="cls-2" d="M1303.63,515.73h-48.42v68.54h-18.63V515.73h-35.39V499.9h102.44ZM1236.58,417h44.7v16.77h-26.07v54.94h-18.63Z"/><path class="cls-2" d="M1364.17,599.55h-19.93l19-41h-12.1L1302.7,458h20.12L1366,547.77h1.86L1409.43,458h19.93Z"/><path class="cls-2" d="M318.07,755.08H299.44V635.88h18.63Z"/><path class="cls-2" d="M360.9,613.53V755.08H342.28V613.53Zm13,30.17h-1.86V624.14a104.32,104.32,0,0,1,44.7-9.68c22.35,0,40.42,6.33,54,19.18s20.48,29.62,20.48,50.66S484.39,722.11,470.8,735s-31.67,19.18-54,19.18a103.24,103.24,0,0,1-44.7-9.87V724.72h1.86c12.48,6,26.82,8.94,42.84,8.94,18.44,0,33.16-4.47,44.33-13.59S477.87,699,477.87,684.3s-5.58-26.63-16.76-35.76S435.22,635,416.78,635C401,635,386.61,637.93,373.94,643.7Z"/><path class="cls-2" d="M541.76,645.75c-11.36,7.26-18.25,17-20.68,29.24h107.1v15.83H520.53c1.67,13,8.38,23.47,19.92,31.29,11.55,7.64,26.27,11.55,44,11.55,15.83,0,30-3,42.84-8.94h1.86v19.56a102,102,0,0,1-44.7,9.87c-22.91,0-41.53-6.33-55.5-19.18s-20.86-29.62-20.86-50.67,6.89-37.81,20.86-50.66,32.59-19.18,55.5-19.18a103.11,103.11,0,0,1,44.7,9.68V643.7h-1.86A105.56,105.56,0,0,0,584.41,635C567.46,635,553.12,638.48,541.76,645.75Z"/><path class="cls-2" d="M780.91,796.06H747L672.88,625.63H671V755.08H652.39V613.53h34.09L760.42,784h1.87V613.53h18.62Z"/><path class="cls-2" d="M920.6,654.5H865.28V755.08H848.52V654.5H793V635.88H920.6Z"/>

  <path class="cls-2" d="M946.68,755.08H928.05V635.88h18.63Z"/>

  <path class="cls-2" d="M1081.71,654.5H1026.4V755.08h-16.77V654.5h-55.5V635.88h127.58Z"/><path class="cls-2" d="M1165.53,755.08H1146.9V712.24l-57.74-76.36h21l45.07,60h1.86l45.26-60h20.87l-57.74,76.36Z"/><path class="cls-2" d="M1236.3,704.79V686.17l53.64-21.42a14.84,14.84,0,0,0,8.76-13c0-10.25-10.43-16.76-26.08-16.76-11.36,0-25,6.33-34.46,15.83h-1.86V630.29c8.38-9.5,23.1-15.83,36.32-15.83,11,0,19.74,3.35,26.26,10.24,6.71,6.89,10.06,15.83,10.06,27,0,14-7.64,26.63-19,31.66Zm0,50.29V734.59h26.08v20.49Z"/><path class="cls-3 path" filter="url(#displacementFilter)" d="M235,405.82c-12.71-7.5-168.87-102.13-123.89-199.11C145.76,132,278.56,101.51,382.86,78.62c365.95-80.3,924.3-52.33,1023,118.24,31.73,54.82,16.35,125-44,174.47-149.85,122.85-584.61,123.75-1071-29.15"/><path class="cls-2" d="M179.63,889v53.59h-6.11l-2.26-11.9q-6.36,7.57-10,10.21a25.71,25.71,0,0,1-15.57,4.86q-16.62,0-26.09-17-8.17-14.65-8.18-35.48,0-20.54,8.12-35.34,9.84-18,28-18,16.5,0,24.74,12.64,5.13,7.9,6.41,19.53h-9.53A24.17,24.17,0,0,0,163.38,858q-6.42-7.77-15.76-7.77-14,0-21,14.53-5.51,11.49-5.5,28.39,0,16.21,5.81,27.91,7.15,14.46,20.67,14.46,10.71,0,17.37-9.87,6.06-9,6.06-21.42v-5.14H148.23V889Z"/><path class="cls-2" d="M225.14,934.82q-5.56,10.95-17.07,10.94-17.15,0-17.14-23.92v-51.9h8.55v53.31a16.8,16.8,0,0,0,2.46,9.54A8.78,8.78,0,0,0,209.8,937q7.37,0,11.66-7.24a28.62,28.62,0,0,0,3.68-14.81v-45h8.55v72.65h-8.55Z"/><path class="cls-2" d="M267.23,937q6.72,0,10.69-6.72,1.59-2.64,3.67-9.84h8.79q-3.84,25.35-23,25.34-13.44,0-19.61-12.77Q243,923.06,243,906.77q0-15.35,5.5-25.95,6.72-13,19.61-13T287,881.29q4.59,10.22,4.58,26c0,.27,0,1-.06,2.3h-39.4v4.27a31.83,31.83,0,0,0,3.42,14.29Q259.9,937,267.23,937Zm.37-60.35q-13.2,0-15.52,24h30.06a36.68,36.68,0,0,0-3.06-15.77Q275.24,876.63,267.6,876.63Z"/><path class="cls-2" d="M318.63,937.32q13.35,0,13.35-12.71,0-8.77-5.85-10.68a165.06,165.06,0,0,1-17.87-6.75q-10.11-4.74-10.12-18.18,0-9.68,5.62-15.41a19.3,19.3,0,0,1,14.42-5.75q19.67,0,20,22.44h-8.49q0-13.65-12.28-13.65a10,10,0,0,0-7.57,3.65,12.16,12.16,0,0,0-3.3,8.39q0,7.51,6.35,10.55.43.21,10.82,3.72,7.81,2.64,10.87,5.14,6,4.88,6,15.23,0,10.62-6.11,16.7-5.81,5.9-15.52,5.89-22.05,0-22.05-24.73H305a21.48,21.48,0,0,0,3.17,10.47A11.77,11.77,0,0,0,318.63,937.32Z"/><path class="cls-2" d="M368.21,869.94v8.78h-8.49v53.93c0,2.84,1.5,4.26,4.52,4.26a18,18,0,0,0,4-.54v8.45a31.42,31.42,0,0,1-6.72,1,10.4,10.4,0,0,1-7.33-2.7,10.05,10.05,0,0,1-3.12-7.72V878.72h-7.45v-8.78H351V850.27h8.68v19.67Z"/><path class="cls-2" d="M432.23,850.27q-12.41,0-18.63,15.34Q409,877.1,409,892.92t4.64,27.3q6.16,15.35,18.63,15.34,9.34,0,15.21-10.2,4.46-7.71,6.29-19.74h9.9q-2.38,18.79-11.06,29.8a26.65,26.65,0,0,1-8.12,6.76,25.54,25.54,0,0,1-12.77,3.58q-16.62,0-25.47-18.31-7.15-14.73-7.15-34.53,0-20.34,7.15-34.94,8.79-18,25.47-18a25.68,25.68,0,0,1,12.77,3.65,26.79,26.79,0,0,1,8.12,6.76q6.36,8.1,9.65,22.43h-10Q445.85,850.28,432.23,850.27Z"/><path class="cls-2" d="M506.64,934.82q-5.58,10.95-17.08,10.94-17.13,0-17.13-23.92v-51.9H481v53.31a16.8,16.8,0,0,0,2.46,9.54,8.77,8.77,0,0,0,7.85,4.19q7.36,0,11.66-7.24a28.53,28.53,0,0,0,3.69-14.81v-45h8.55v72.65h-8.55Z"/><path class="cls-2" d="M536,869.94v11.35q5.14-12.63,12.44-13.45h4.79v10.82a19.48,19.48,0,0,0-8.16,1.62Q536,885.82,536,903.39v39.2h-8.55V869.94Z"/><path class="cls-2" d="M606.82,937.18v7.37l-7.27,1.21q-6.84-2.29-7.51-10.54a59.44,59.44,0,0,1-7.45,6.9A18,18,0,0,1,574,945.76q-17.84,0-17.84-22.18,0-15,11.36-19.49a48.36,48.36,0,0,1,11.61-3,74.57,74.57,0,0,0,8.31-1.29,5.33,5.33,0,0,0,4.21-5.54v-8.59q-1.21-9-13-9a10.42,10.42,0,0,0-9,4.41q-2.86,4-2.87,10.59h-8.12v-3.58a19.08,19.08,0,0,1,6.47-14.87,20.91,20.91,0,0,1,14.42-5.34,27.25,27.25,0,0,1,13.62,3.38q7.51,4.2,7.51,11.83v50.14a3.92,3.92,0,0,0,1.44,3.08,4.61,4.61,0,0,0,3.08,1.25A3.69,3.69,0,0,0,606.82,937.18Zm-36.67-25.07c-.94.59-2,2-3.1,4.26a16.86,16.86,0,0,0-2,7.57,16.09,16.09,0,0,0,2.49,9,8.49,8.49,0,0,0,7.36,4.19A16.09,16.09,0,0,0,587.66,931c2.67-3.19,4-5.88,4-8v-17.3q-3.23,1.75-11.13,3.31Q572.89,910.36,570.15,912.11Z"/><path class="cls-2" d="M632.54,869.94v8.78h-8.49v53.93q0,4.26,4.52,4.26a18,18,0,0,0,4-.54v8.45a31.42,31.42,0,0,1-6.72,1,10.42,10.42,0,0,1-7.33-2.7,10,10,0,0,1-3.11-7.72V878.72h-7.46v-8.78h7.46V850.27h8.67v19.67Z"/><path class="cls-2" d="M660.58,867.84q13.14,0,19.37,12.91,4.88,10.08,4.88,26t-4.88,26q-6.24,13-19.37,13t-19.42-12.9q-4.89-10.14-4.89-26.09t5-25.95Q647.5,867.84,660.58,867.84Zm15.52,38.93a50.11,50.11,0,0,0-3.79-20q-4.39-10.1-11.73-10.09-8.55,0-12.58,11a55.42,55.42,0,0,0-2.93,19.1A50.51,50.51,0,0,0,648.79,927q4.34,10,11.79,10t11.79-10A50.51,50.51,0,0,0,676.1,906.77Z"/><path class="cls-2" d="M702.73,869.94v11.35q5.14-12.63,12.45-13.45H720v10.82a19.44,19.44,0,0,0-8.15,1.62q-9.07,5.54-9.08,23.11v39.2h-8.55V869.94Z"/><path class="cls-2" d="M718.19,908v-8.72h58V908Z"/><path class="cls-2" d="M795.77,860.68v81.91h-9.9V841.69h13.74l21.51,85.83,21.56-85.83H856.3v100.9h-9.89V860.68L826,942.59h-9.83Z"/><path class="cls-2" d="M868,856.08V841.69h8.55v14.39Zm0,86.51V869.94h8.55v72.65Z"/><path class="cls-2" d="M931.69,930.25q0,20.26-3.67,29.31Q922.59,973,907,973a18.53,18.53,0,0,1-14.42-6.16q-5.56-6.17-6.11-15.94h8.63a17.39,17.39,0,0,0,2.63,8.21,11.12,11.12,0,0,0,10,5.44q11.76,0,14.32-15.51a94,94,0,0,0,1.1-15.17,21.7,21.7,0,0,1-6,7.43,16.6,16.6,0,0,1-10.59,3.92q-11.31,0-17.31-13.51-4.65-10.62-4.65-24.53,0-15,4.77-25.62,6.18-13.71,18.42-13.72,10.88,0,15.41,10.95v-8.85h8.56Zm-23-53.62q-5.94,0-9.86,6.22-5,8-5,24.56a57.46,57.46,0,0,0,2.7,18.41q3.74,11.08,11.56,11.09,8.58,0,12.37-10.76,2.7-7.57,2.69-18.74a63.29,63.29,0,0,0-2.57-19.08Q916.83,876.63,908.69,876.63Z"/><path class="cls-2" d="M977,934.82q-5.57,10.95-17.07,10.94-17.13,0-17.14-23.92v-51.9h8.56v53.31a16.8,16.8,0,0,0,2.45,9.54,8.78,8.78,0,0,0,7.86,4.19q7.36,0,11.66-7.24A28.62,28.62,0,0,0,977,914.93v-45h8.55v72.65H977Z"/><path class="cls-2" d="M1019,937q6.72,0,10.69-6.72,1.59-2.64,3.67-9.84h8.79q-3.84,25.35-23,25.34-13.42,0-19.6-12.77-4.77-9.93-4.77-26.22,0-15.35,5.5-25.95,6.72-13,19.61-13t18.87,13.45q4.59,10.22,4.58,26c0,.27,0,1-.06,2.3h-39.4v4.27a31.83,31.83,0,0,0,3.42,14.29Q1011.72,937,1019,937Zm.37-60.35q-13.2,0-15.52,24H1034a36.68,36.68,0,0,0-3.06-15.77Q1027,876.63,1019.41,876.63Z"/><path class="cls-2" d="M1060.77,841.69v100.9h-8.56V841.69Z"/><path class="cls-2" d="M1164.19,889v53.59h-6.11l-2.26-11.9q-6.36,7.57-10,10.21a25.71,25.71,0,0,1-15.57,4.86q-16.62,0-26.09-17-8.17-14.65-8.18-35.48,0-20.54,8.12-35.34,9.84-18,28-18,16.5,0,24.74,12.64,5.13,7.9,6.41,19.53h-9.53a24.17,24.17,0,0,0-5.86-14.13q-6.42-7.77-15.76-7.77-14,0-21,14.53-5.51,11.49-5.5,28.39,0,16.21,5.81,27.91,7.15,14.46,20.67,14.46,10.71,0,17.37-9.87,6.06-9,6.06-21.42v-5.14h-22.85V889Z"/><path class="cls-2" d="M1209.7,934.82q-5.57,10.95-17.07,10.94-17.14,0-17.14-23.92v-51.9H1184v53.31a16.8,16.8,0,0,0,2.46,9.54,8.78,8.78,0,0,0,7.86,4.19q7.35,0,11.66-7.24a28.62,28.62,0,0,0,3.68-14.81v-45h8.55v72.65h-8.55Z"/><path class="cls-2" d="M1249.41,869.94v8.78h-8.49v53.93c0,2.84,1.5,4.26,4.52,4.26a18,18,0,0,0,4-.54v8.45a31.42,31.42,0,0,1-6.72,1,10.4,10.4,0,0,1-7.33-2.7,10.05,10.05,0,0,1-3.12-7.72V878.72h-7.45v-8.78h7.45V850.27h8.68v19.67Z"/><path class="cls-2" d="M1256.19,856.08V841.69h8.55v14.39Zm0,86.51V869.94h8.55v72.65Z"/><path class="cls-2" d="M1298.1,937q6.72,0,10.69-6.72,1.59-2.64,3.66-9.84h8.8q-3.86,25.35-23,25.34-13.44,0-19.61-12.77-4.75-9.93-4.76-26.22,0-15.35,5.49-25.95,6.72-13,19.61-13t18.88,13.45q4.58,10.22,4.58,26c0,.27,0,1-.06,2.3H1283v4.27a31.83,31.83,0,0,0,3.42,14.29Q1290.76,937,1298.1,937Zm.36-60.35q-13.18,0-15.51,24h30a36.84,36.84,0,0,0-3-15.77Q1306.1,876.63,1298.46,876.63Z"/><path class="cls-2" d="M1339.88,869.94v11.35q5.16-12.63,12.45-13.45h4.78v10.82a19.44,19.44,0,0,0-8.15,1.62q-9.07,5.54-9.08,23.11v39.2h-8.55V869.94Z"/><path class="cls-2" d="M1371.53,869.94v11.35q5.15-12.63,12.44-13.45h4.78v10.82a19.47,19.47,0,0,0-8.15,1.62q-9.07,5.54-9.07,23.11v39.2H1363V869.94Z"/><path class="cls-2" d="M1415.94,937q6.72,0,10.69-6.72,1.59-2.64,3.66-9.84h8.8q-3.85,25.35-23,25.34-13.44,0-19.61-12.77-4.76-9.93-4.76-26.22,0-15.35,5.5-25.95,6.72-13,19.6-13t18.88,13.45q4.57,10.22,4.58,26c0,.27,0,1-.06,2.3h-39.4v4.27a31.83,31.83,0,0,0,3.42,14.29Q1408.61,937,1415.94,937Zm.37-60.35q-13.2,0-15.52,24h30q0-9.3-3-15.77Q1423.94,876.63,1416.31,876.63Z"/><path class="cls-2" d="M1455.59,933.8H1489v8.79h-43.8v-9.52l32.8-54.35h-30.54v-8.78h40.32V880Z"/></svg>
